<mxfile host="app.diagrams.net" agent="Mozilla/5.0 (Windows NT 10.0; Win64; x64) AppleWebKit/537.36 (KHTML, like Gecko) Chrome/130.0.0.0 Safari/537.36" version="24.8.2">
  <diagram name="PÃ¡gina-1" id="K3Nxqddu0JdHczChXiPI">
    <mxGraphModel dx="1947" dy="468" grid="1" gridSize="10" guides="1" tooltips="1" connect="1" arrows="1" fold="1" page="1" pageScale="1" pageWidth="827" pageHeight="1169" math="0" shadow="0">
      <root>
        <mxCell id="0" />
        <mxCell id="1" parent="0" />
        <mxCell id="NhMVIfDmeI67b42QX-OK-1" value="&lt;font style=&quot;vertical-align: inherit;&quot;&gt;&lt;font style=&quot;vertical-align: inherit;&quot;&gt;Visitantes&lt;/font&gt;&lt;/font&gt;" style="whiteSpace=wrap;html=1;align=center;" vertex="1" parent="1">
          <mxGeometry x="990" y="210" width="100" height="40" as="geometry" />
        </mxCell>
        <mxCell id="NhMVIfDmeI67b42QX-OK-7" value="&lt;font style=&quot;vertical-align: inherit;&quot;&gt;&lt;font style=&quot;vertical-align: inherit;&quot;&gt;Habitad&lt;/font&gt;&lt;/font&gt;" style="whiteSpace=wrap;html=1;align=center;" vertex="1" parent="1">
          <mxGeometry x="580" y="500" width="100" height="40" as="geometry" />
        </mxCell>
        <mxCell id="NhMVIfDmeI67b42QX-OK-9" value="Especie" style="whiteSpace=wrap;html=1;align=center;" vertex="1" parent="1">
          <mxGeometry x="465" y="128" width="100" height="40" as="geometry" />
        </mxCell>
        <mxCell id="NhMVIfDmeI67b42QX-OK-10" value="&lt;font style=&quot;vertical-align: inherit;&quot;&gt;&lt;font style=&quot;vertical-align: inherit;&quot;&gt;Cuidador&lt;/font&gt;&lt;/font&gt;" style="whiteSpace=wrap;html=1;align=center;" vertex="1" parent="1">
          <mxGeometry x="10" y="600" width="100" height="40" as="geometry" />
        </mxCell>
        <mxCell id="NhMVIfDmeI67b42QX-OK-11" value="&lt;font style=&quot;vertical-align: inherit;&quot;&gt;&lt;font style=&quot;vertical-align: inherit;&quot;&gt;&lt;font style=&quot;vertical-align: inherit;&quot;&gt;&lt;font style=&quot;vertical-align: inherit;&quot;&gt;Animal&lt;/font&gt;&lt;/font&gt;&lt;/font&gt;&lt;/font&gt;" style="whiteSpace=wrap;html=1;align=center;" vertex="1" parent="1">
          <mxGeometry x="90" y="130" width="100" height="40" as="geometry" />
        </mxCell>
        <mxCell id="NhMVIfDmeI67b42QX-OK-14" value="" style="endArrow=none;html=1;rounded=0;exitX=1;exitY=0.5;exitDx=0;exitDy=0;entryX=0.5;entryY=0;entryDx=0;entryDy=0;" edge="1" parent="1" source="NhMVIfDmeI67b42QX-OK-17" target="NhMVIfDmeI67b42QX-OK-11">
          <mxGeometry relative="1" as="geometry">
            <mxPoint x="46" y="68" as="sourcePoint" />
            <mxPoint x="370" y="200" as="targetPoint" />
          </mxGeometry>
        </mxCell>
        <mxCell id="NhMVIfDmeI67b42QX-OK-15" value="" style="endArrow=none;html=1;rounded=0;exitX=1;exitY=0.5;exitDx=0;exitDy=0;entryX=0;entryY=0.5;entryDx=0;entryDy=0;" edge="1" parent="1" source="NhMVIfDmeI67b42QX-OK-95" target="NhMVIfDmeI67b42QX-OK-11">
          <mxGeometry relative="1" as="geometry">
            <mxPoint x="-10" y="150" as="sourcePoint" />
            <mxPoint x="220" y="130" as="targetPoint" />
          </mxGeometry>
        </mxCell>
        <mxCell id="NhMVIfDmeI67b42QX-OK-16" value="" style="endArrow=none;html=1;rounded=0;exitX=0.5;exitY=0;exitDx=0;exitDy=0;entryX=0.5;entryY=1;entryDx=0;entryDy=0;" edge="1" parent="1" source="NhMVIfDmeI67b42QX-OK-88" target="NhMVIfDmeI67b42QX-OK-11">
          <mxGeometry relative="1" as="geometry">
            <mxPoint x="30" y="268" as="sourcePoint" />
            <mxPoint x="230" y="140" as="targetPoint" />
          </mxGeometry>
        </mxCell>
        <mxCell id="NhMVIfDmeI67b42QX-OK-17" value="&lt;font style=&quot;vertical-align: inherit;&quot;&gt;&lt;font style=&quot;vertical-align: inherit;&quot;&gt;AnimalID&lt;/font&gt;&lt;/font&gt;" style="ellipse;whiteSpace=wrap;html=1;align=center;fontStyle=4;" vertex="1" parent="1">
          <mxGeometry x="40" y="58" width="100" height="40" as="geometry" />
        </mxCell>
        <mxCell id="NhMVIfDmeI67b42QX-OK-18" value="&lt;span style=&quot;font-size: 11pt; line-height: 107%; font-family: &amp;quot;Segoe UI&amp;quot;, sans-serif; background: white;&quot;&gt;&lt;font style=&quot;vertical-align: inherit;&quot;&gt;&lt;font style=&quot;vertical-align: inherit;&quot;&gt;EspecieID&lt;/font&gt;&lt;/font&gt;&lt;/span&gt;" style="ellipse;whiteSpace=wrap;html=1;align=center;fontStyle=4;" vertex="1" parent="1">
          <mxGeometry x="560" y="30" width="100" height="40" as="geometry" />
        </mxCell>
        <mxCell id="NhMVIfDmeI67b42QX-OK-24" value="" style="endArrow=none;html=1;rounded=0;exitX=0;exitY=1;exitDx=0;exitDy=0;entryX=1;entryY=0;entryDx=0;entryDy=0;" edge="1" parent="1" source="NhMVIfDmeI67b42QX-OK-18" target="NhMVIfDmeI67b42QX-OK-9">
          <mxGeometry relative="1" as="geometry">
            <mxPoint x="90" y="43" as="sourcePoint" />
            <mxPoint x="190" y="113" as="targetPoint" />
          </mxGeometry>
        </mxCell>
        <mxCell id="NhMVIfDmeI67b42QX-OK-25" value="" style="endArrow=none;html=1;rounded=0;exitX=0;exitY=0.5;exitDx=0;exitDy=0;entryX=1;entryY=0.5;entryDx=0;entryDy=0;" edge="1" parent="1" source="NhMVIfDmeI67b42QX-OK-97" target="NhMVIfDmeI67b42QX-OK-9">
          <mxGeometry relative="1" as="geometry">
            <mxPoint x="570" y="83" as="sourcePoint" />
            <mxPoint x="200" y="123" as="targetPoint" />
          </mxGeometry>
        </mxCell>
        <mxCell id="NhMVIfDmeI67b42QX-OK-26" value="" style="endArrow=none;html=1;rounded=0;exitX=1;exitY=1;exitDx=0;exitDy=0;entryX=0;entryY=0.5;entryDx=0;entryDy=0;" edge="1" parent="1" source="NhMVIfDmeI67b42QX-OK-9" target="NhMVIfDmeI67b42QX-OK-93">
          <mxGeometry relative="1" as="geometry">
            <mxPoint x="110" y="63" as="sourcePoint" />
            <mxPoint x="210" y="133" as="targetPoint" />
          </mxGeometry>
        </mxCell>
        <mxCell id="NhMVIfDmeI67b42QX-OK-27" value="" style="endArrow=none;html=1;rounded=0;entryX=0.5;entryY=0;entryDx=0;entryDy=0;" edge="1" parent="1" source="NhMVIfDmeI67b42QX-OK-9" target="NhMVIfDmeI67b42QX-OK-98">
          <mxGeometry relative="1" as="geometry">
            <mxPoint x="120" y="73" as="sourcePoint" />
            <mxPoint x="515.04" y="194" as="targetPoint" />
          </mxGeometry>
        </mxCell>
        <mxCell id="NhMVIfDmeI67b42QX-OK-30" value="&lt;font style=&quot;vertical-align: inherit;&quot;&gt;&lt;font style=&quot;vertical-align: inherit;&quot;&gt;Nombre&lt;/font&gt;&lt;/font&gt;" style="ellipse;whiteSpace=wrap;html=1;align=center;" vertex="1" parent="1">
          <mxGeometry x="720" y="530" width="100" height="40" as="geometry" />
        </mxCell>
        <mxCell id="NhMVIfDmeI67b42QX-OK-32" value="HabitadID" style="ellipse;whiteSpace=wrap;html=1;align=center;fontStyle=4;" vertex="1" parent="1">
          <mxGeometry x="720" y="460" width="100" height="40" as="geometry" />
        </mxCell>
        <mxCell id="NhMVIfDmeI67b42QX-OK-35" value="" style="endArrow=none;html=1;rounded=0;entryX=0;entryY=0.5;entryDx=0;entryDy=0;exitX=1;exitY=0;exitDx=0;exitDy=0;" edge="1" parent="1" source="NhMVIfDmeI67b42QX-OK-7" target="NhMVIfDmeI67b42QX-OK-32">
          <mxGeometry relative="1" as="geometry">
            <mxPoint x="578" y="200" as="sourcePoint" />
            <mxPoint x="615" y="291" as="targetPoint" />
          </mxGeometry>
        </mxCell>
        <mxCell id="NhMVIfDmeI67b42QX-OK-36" value="" style="endArrow=none;html=1;rounded=0;entryX=0;entryY=0.5;entryDx=0;entryDy=0;exitX=1;exitY=0.5;exitDx=0;exitDy=0;" edge="1" parent="1" source="NhMVIfDmeI67b42QX-OK-7" target="NhMVIfDmeI67b42QX-OK-30">
          <mxGeometry relative="1" as="geometry">
            <mxPoint x="588" y="210" as="sourcePoint" />
            <mxPoint x="625" y="301" as="targetPoint" />
          </mxGeometry>
        </mxCell>
        <mxCell id="NhMVIfDmeI67b42QX-OK-37" value="" style="endArrow=none;html=1;rounded=0;entryX=1;entryY=1;entryDx=0;entryDy=0;exitX=0.5;exitY=0;exitDx=0;exitDy=0;" edge="1" parent="1" source="NhMVIfDmeI67b42QX-OK-91" target="NhMVIfDmeI67b42QX-OK-7">
          <mxGeometry relative="1" as="geometry">
            <mxPoint x="598" y="220" as="sourcePoint" />
            <mxPoint x="635" y="311" as="targetPoint" />
          </mxGeometry>
        </mxCell>
        <mxCell id="NhMVIfDmeI67b42QX-OK-38" value="" style="endArrow=none;html=1;rounded=0;exitX=0.25;exitY=1;exitDx=0;exitDy=0;entryX=0.5;entryY=0;entryDx=0;entryDy=0;" edge="1" parent="1" source="NhMVIfDmeI67b42QX-OK-7" target="NhMVIfDmeI67b42QX-OK-96">
          <mxGeometry relative="1" as="geometry">
            <mxPoint x="608" y="230" as="sourcePoint" />
            <mxPoint x="730" y="470" as="targetPoint" />
          </mxGeometry>
        </mxCell>
        <mxCell id="NhMVIfDmeI67b42QX-OK-39" value="&lt;font style=&quot;vertical-align: inherit;&quot;&gt;&lt;font style=&quot;vertical-align: inherit;&quot;&gt;Nombre&lt;/font&gt;&lt;/font&gt;" style="ellipse;whiteSpace=wrap;html=1;align=center;" vertex="1" parent="1">
          <mxGeometry x="-80" y="550" width="100" height="40" as="geometry" />
        </mxCell>
        <mxCell id="NhMVIfDmeI67b42QX-OK-43" value="CuidadorID" style="ellipse;whiteSpace=wrap;html=1;align=center;fontStyle=4;" vertex="1" parent="1">
          <mxGeometry x="-110" y="620" width="100" height="40" as="geometry" />
        </mxCell>
        <mxCell id="NhMVIfDmeI67b42QX-OK-44" value="" style="endArrow=none;html=1;rounded=0;entryX=1;entryY=0.5;entryDx=0;entryDy=0;exitX=0;exitY=0.5;exitDx=0;exitDy=0;" edge="1" parent="1" source="NhMVIfDmeI67b42QX-OK-10" target="NhMVIfDmeI67b42QX-OK-43">
          <mxGeometry relative="1" as="geometry">
            <mxPoint x="361" y="467" as="sourcePoint" />
            <mxPoint x="340" y="530" as="targetPoint" />
          </mxGeometry>
        </mxCell>
        <mxCell id="NhMVIfDmeI67b42QX-OK-45" value="" style="endArrow=none;html=1;rounded=0;entryX=0.66;entryY=1;entryDx=0;entryDy=0;exitX=0;exitY=0;exitDx=0;exitDy=0;entryPerimeter=0;" edge="1" parent="1" source="NhMVIfDmeI67b42QX-OK-10" target="NhMVIfDmeI67b42QX-OK-39">
          <mxGeometry relative="1" as="geometry">
            <mxPoint x="371" y="477" as="sourcePoint" />
            <mxPoint x="350" y="540" as="targetPoint" />
          </mxGeometry>
        </mxCell>
        <mxCell id="NhMVIfDmeI67b42QX-OK-46" value="" style="endArrow=none;html=1;rounded=0;entryX=0.4;entryY=1;entryDx=0;entryDy=0;exitX=0.75;exitY=0;exitDx=0;exitDy=0;entryPerimeter=0;" edge="1" parent="1" source="NhMVIfDmeI67b42QX-OK-90">
          <mxGeometry relative="1" as="geometry">
            <mxPoint x="381" y="487" as="sourcePoint" />
            <mxPoint x="194" y="560" as="targetPoint" />
          </mxGeometry>
        </mxCell>
        <mxCell id="NhMVIfDmeI67b42QX-OK-47" value="" style="endArrow=none;html=1;rounded=0;exitX=0;exitY=0.5;exitDx=0;exitDy=0;entryX=1;entryY=0.5;entryDx=0;entryDy=0;" edge="1" parent="1" source="NhMVIfDmeI67b42QX-OK-89" target="NhMVIfDmeI67b42QX-OK-10">
          <mxGeometry relative="1" as="geometry">
            <mxPoint x="200" y="630" as="sourcePoint" />
            <mxPoint x="180" y="630" as="targetPoint" />
          </mxGeometry>
        </mxCell>
        <mxCell id="NhMVIfDmeI67b42QX-OK-49" value="&lt;font style=&quot;vertical-align: inherit;&quot;&gt;&lt;font style=&quot;vertical-align: inherit;&quot;&gt;Nombre&lt;/font&gt;&lt;/font&gt;" style="ellipse;whiteSpace=wrap;html=1;align=center;" vertex="1" parent="1">
          <mxGeometry x="1060" y="150" width="100" height="40" as="geometry" />
        </mxCell>
        <mxCell id="NhMVIfDmeI67b42QX-OK-50" value="VisitanteID" style="ellipse;whiteSpace=wrap;html=1;align=center;fontStyle=4;" vertex="1" parent="1">
          <mxGeometry x="890" y="160" width="100" height="40" as="geometry" />
        </mxCell>
        <mxCell id="NhMVIfDmeI67b42QX-OK-52" value="" style="endArrow=none;html=1;rounded=0;entryX=0.5;entryY=0;entryDx=0;entryDy=0;exitX=0.5;exitY=1;exitDx=0;exitDy=0;" edge="1" parent="1" source="NhMVIfDmeI67b42QX-OK-1" target="NhMVIfDmeI67b42QX-OK-92">
          <mxGeometry relative="1" as="geometry">
            <mxPoint x="1244" y="400" as="sourcePoint" />
            <mxPoint x="1040" y="270" as="targetPoint" />
          </mxGeometry>
        </mxCell>
        <mxCell id="NhMVIfDmeI67b42QX-OK-53" value="" style="endArrow=none;html=1;rounded=0;entryX=1;entryY=0.5;entryDx=0;entryDy=0;exitX=0;exitY=0.5;exitDx=0;exitDy=0;" edge="1" parent="1" source="NhMVIfDmeI67b42QX-OK-1" target="NhMVIfDmeI67b42QX-OK-50">
          <mxGeometry relative="1" as="geometry">
            <mxPoint x="1254" y="410" as="sourcePoint" />
            <mxPoint x="1210" y="410" as="targetPoint" />
          </mxGeometry>
        </mxCell>
        <mxCell id="NhMVIfDmeI67b42QX-OK-54" value="" style="endArrow=none;html=1;rounded=0;entryX=0.5;entryY=1;entryDx=0;entryDy=0;exitX=0.5;exitY=0;exitDx=0;exitDy=0;" edge="1" parent="1" source="NhMVIfDmeI67b42QX-OK-1" target="NhMVIfDmeI67b42QX-OK-49">
          <mxGeometry relative="1" as="geometry">
            <mxPoint x="1264" y="420" as="sourcePoint" />
            <mxPoint x="1220" y="420" as="targetPoint" />
          </mxGeometry>
        </mxCell>
        <mxCell id="NhMVIfDmeI67b42QX-OK-55" value="Pertenece" style="shape=rhombus;perimeter=rhombusPerimeter;whiteSpace=wrap;html=1;align=center;" vertex="1" parent="1">
          <mxGeometry x="290" y="120" width="120" height="60" as="geometry" />
        </mxCell>
        <mxCell id="NhMVIfDmeI67b42QX-OK-56" value="" style="endArrow=none;html=1;rounded=0;exitX=1;exitY=0.5;exitDx=0;exitDy=0;entryX=0;entryY=0.5;entryDx=0;entryDy=0;" edge="1" parent="1" source="NhMVIfDmeI67b42QX-OK-11" target="NhMVIfDmeI67b42QX-OK-55">
          <mxGeometry relative="1" as="geometry">
            <mxPoint x="50" y="70" as="sourcePoint" />
            <mxPoint x="150" y="140" as="targetPoint" />
          </mxGeometry>
        </mxCell>
        <mxCell id="NhMVIfDmeI67b42QX-OK-58" value="1:1" style="edgeLabel;html=1;align=center;verticalAlign=middle;resizable=0;points=[];" vertex="1" connectable="0" parent="NhMVIfDmeI67b42QX-OK-56">
          <mxGeometry x="-0.18" relative="1" as="geometry">
            <mxPoint as="offset" />
          </mxGeometry>
        </mxCell>
        <mxCell id="NhMVIfDmeI67b42QX-OK-57" value="" style="endArrow=none;html=1;rounded=0;exitX=1;exitY=0.5;exitDx=0;exitDy=0;entryX=0;entryY=0.5;entryDx=0;entryDy=0;" edge="1" parent="1" source="NhMVIfDmeI67b42QX-OK-55" target="NhMVIfDmeI67b42QX-OK-9">
          <mxGeometry relative="1" as="geometry">
            <mxPoint x="60" y="80" as="sourcePoint" />
            <mxPoint x="160" y="150" as="targetPoint" />
          </mxGeometry>
        </mxCell>
        <mxCell id="NhMVIfDmeI67b42QX-OK-59" value="N:1" style="edgeLabel;html=1;align=center;verticalAlign=middle;resizable=0;points=[];" vertex="1" connectable="0" parent="NhMVIfDmeI67b42QX-OK-57">
          <mxGeometry x="-0.1615" y="-4" relative="1" as="geometry">
            <mxPoint as="offset" />
          </mxGeometry>
        </mxCell>
        <mxCell id="NhMVIfDmeI67b42QX-OK-60" value="1:N" style="text;html=1;align=center;verticalAlign=middle;resizable=0;points=[];autosize=1;strokeColor=none;fillColor=none;" vertex="1" parent="1">
          <mxGeometry x="330" y="98" width="40" height="30" as="geometry" />
        </mxCell>
        <mxCell id="NhMVIfDmeI67b42QX-OK-61" value="Alberga" style="shape=rhombus;perimeter=rhombusPerimeter;whiteSpace=wrap;html=1;align=center;" vertex="1" parent="1">
          <mxGeometry x="310" y="400" width="120" height="60" as="geometry" />
        </mxCell>
        <mxCell id="NhMVIfDmeI67b42QX-OK-62" value="" style="endArrow=none;html=1;rounded=0;exitX=1;exitY=1;exitDx=0;exitDy=0;entryX=0;entryY=0.5;entryDx=0;entryDy=0;" edge="1" parent="1" source="NhMVIfDmeI67b42QX-OK-11" target="NhMVIfDmeI67b42QX-OK-61">
          <mxGeometry relative="1" as="geometry">
            <mxPoint x="200" y="160" as="sourcePoint" />
            <mxPoint x="300" y="160" as="targetPoint" />
          </mxGeometry>
        </mxCell>
        <mxCell id="NhMVIfDmeI67b42QX-OK-63" value="1:1" style="edgeLabel;html=1;align=center;verticalAlign=middle;resizable=0;points=[];" vertex="1" connectable="0" parent="NhMVIfDmeI67b42QX-OK-62">
          <mxGeometry x="-0.18" relative="1" as="geometry">
            <mxPoint as="offset" />
          </mxGeometry>
        </mxCell>
        <mxCell id="NhMVIfDmeI67b42QX-OK-64" value="" style="endArrow=none;html=1;rounded=0;exitX=1;exitY=0.5;exitDx=0;exitDy=0;entryX=0;entryY=0.5;entryDx=0;entryDy=0;" edge="1" parent="1" source="NhMVIfDmeI67b42QX-OK-61" target="NhMVIfDmeI67b42QX-OK-7">
          <mxGeometry relative="1" as="geometry">
            <mxPoint x="210" y="170" as="sourcePoint" />
            <mxPoint x="310" y="170" as="targetPoint" />
          </mxGeometry>
        </mxCell>
        <mxCell id="NhMVIfDmeI67b42QX-OK-65" value="N:1" style="edgeLabel;html=1;align=center;verticalAlign=middle;resizable=0;points=[];" vertex="1" connectable="0" parent="NhMVIfDmeI67b42QX-OK-64">
          <mxGeometry x="-0.18" relative="1" as="geometry">
            <mxPoint as="offset" />
          </mxGeometry>
        </mxCell>
        <mxCell id="NhMVIfDmeI67b42QX-OK-66" value="1:N" style="text;html=1;align=center;verticalAlign=middle;resizable=0;points=[];autosize=1;strokeColor=none;fillColor=none;" vertex="1" parent="1">
          <mxGeometry x="350" y="380" width="40" height="30" as="geometry" />
        </mxCell>
        <mxCell id="NhMVIfDmeI67b42QX-OK-67" value="Cargo" style="shape=rhombus;perimeter=rhombusPerimeter;whiteSpace=wrap;html=1;align=center;" vertex="1" parent="1">
          <mxGeometry y="400" width="120" height="60" as="geometry" />
        </mxCell>
        <mxCell id="NhMVIfDmeI67b42QX-OK-68" value="" style="endArrow=none;html=1;rounded=0;exitX=0.75;exitY=1;exitDx=0;exitDy=0;entryX=1;entryY=0.5;entryDx=0;entryDy=0;" edge="1" parent="1" source="NhMVIfDmeI67b42QX-OK-11" target="NhMVIfDmeI67b42QX-OK-67">
          <mxGeometry relative="1" as="geometry">
            <mxPoint x="200" y="180" as="sourcePoint" />
            <mxPoint x="160" y="410" as="targetPoint" />
          </mxGeometry>
        </mxCell>
        <mxCell id="NhMVIfDmeI67b42QX-OK-69" value="1:1" style="edgeLabel;html=1;align=center;verticalAlign=middle;resizable=0;points=[];" vertex="1" connectable="0" parent="NhMVIfDmeI67b42QX-OK-68">
          <mxGeometry x="-0.18" relative="1" as="geometry">
            <mxPoint as="offset" />
          </mxGeometry>
        </mxCell>
        <mxCell id="NhMVIfDmeI67b42QX-OK-70" value="" style="endArrow=none;html=1;rounded=0;exitX=0.5;exitY=1;exitDx=0;exitDy=0;entryX=0.5;entryY=0;entryDx=0;entryDy=0;" edge="1" parent="1" source="NhMVIfDmeI67b42QX-OK-67" target="NhMVIfDmeI67b42QX-OK-10">
          <mxGeometry relative="1" as="geometry">
            <mxPoint y="190" as="sourcePoint" />
            <mxPoint x="94" y="350" as="targetPoint" />
          </mxGeometry>
        </mxCell>
        <mxCell id="NhMVIfDmeI67b42QX-OK-71" value="N:1" style="edgeLabel;html=1;align=center;verticalAlign=middle;resizable=0;points=[];" vertex="1" connectable="0" parent="NhMVIfDmeI67b42QX-OK-70">
          <mxGeometry x="-0.18" relative="1" as="geometry">
            <mxPoint as="offset" />
          </mxGeometry>
        </mxCell>
        <mxCell id="NhMVIfDmeI67b42QX-OK-72" value="1:N" style="text;html=1;align=center;verticalAlign=middle;resizable=0;points=[];autosize=1;strokeColor=none;fillColor=none;" vertex="1" parent="1">
          <mxGeometry x="40" y="380" width="40" height="30" as="geometry" />
        </mxCell>
        <mxCell id="NhMVIfDmeI67b42QX-OK-73" value="Visita" style="shape=rhombus;perimeter=rhombusPerimeter;whiteSpace=wrap;html=1;align=center;" vertex="1" parent="1">
          <mxGeometry x="670" y="330" width="120" height="60" as="geometry" />
        </mxCell>
        <mxCell id="NhMVIfDmeI67b42QX-OK-74" value="" style="endArrow=none;html=1;rounded=0;exitX=0;exitY=0.5;exitDx=0;exitDy=0;entryX=0.5;entryY=0;entryDx=0;entryDy=0;" edge="1" parent="1" source="NhMVIfDmeI67b42QX-OK-73" target="NhMVIfDmeI67b42QX-OK-7">
          <mxGeometry relative="1" as="geometry">
            <mxPoint x="200" y="180" as="sourcePoint" />
            <mxPoint x="294" y="340" as="targetPoint" />
          </mxGeometry>
        </mxCell>
        <mxCell id="NhMVIfDmeI67b42QX-OK-75" value="1:N" style="edgeLabel;html=1;align=center;verticalAlign=middle;resizable=0;points=[];" vertex="1" connectable="0" parent="NhMVIfDmeI67b42QX-OK-74">
          <mxGeometry x="-0.18" relative="1" as="geometry">
            <mxPoint as="offset" />
          </mxGeometry>
        </mxCell>
        <mxCell id="NhMVIfDmeI67b42QX-OK-76" value="" style="endArrow=none;html=1;rounded=0;exitX=0;exitY=0.5;exitDx=0;exitDy=0;entryX=1;entryY=0.5;entryDx=0;entryDy=0;" edge="1" parent="1" source="NhMVIfDmeI67b42QX-OK-1" target="NhMVIfDmeI67b42QX-OK-73">
          <mxGeometry relative="1" as="geometry">
            <mxPoint x="650" y="300" as="sourcePoint" />
            <mxPoint x="660" y="400" as="targetPoint" />
          </mxGeometry>
        </mxCell>
        <mxCell id="NhMVIfDmeI67b42QX-OK-77" value="N:1" style="edgeLabel;html=1;align=center;verticalAlign=middle;resizable=0;points=[];" vertex="1" connectable="0" parent="NhMVIfDmeI67b42QX-OK-76">
          <mxGeometry x="-0.18" relative="1" as="geometry">
            <mxPoint as="offset" />
          </mxGeometry>
        </mxCell>
        <mxCell id="NhMVIfDmeI67b42QX-OK-79" value="N:N" style="text;html=1;align=center;verticalAlign=middle;resizable=0;points=[];autosize=1;strokeColor=none;fillColor=none;" vertex="1" parent="1">
          <mxGeometry x="710" y="310" width="40" height="30" as="geometry" />
        </mxCell>
        <mxCell id="NhMVIfDmeI67b42QX-OK-88" value="Fechanacimiento" style="ellipse;whiteSpace=wrap;html=1;align=center;" vertex="1" parent="1">
          <mxGeometry x="20" y="210" width="100" height="40" as="geometry" />
        </mxCell>
        <mxCell id="NhMVIfDmeI67b42QX-OK-89" value="Especialidad" style="ellipse;shape=doubleEllipse;margin=3;whiteSpace=wrap;html=1;align=center;" vertex="1" parent="1">
          <mxGeometry x="140" y="600" width="100" height="40" as="geometry" />
        </mxCell>
        <mxCell id="NhMVIfDmeI67b42QX-OK-91" value="Clima" style="ellipse;shape=doubleEllipse;margin=3;whiteSpace=wrap;html=1;align=center;" vertex="1" parent="1">
          <mxGeometry x="630" y="580" width="100" height="40" as="geometry" />
        </mxCell>
        <mxCell id="NhMVIfDmeI67b42QX-OK-92" value="&lt;font style=&quot;vertical-align: inherit;&quot;&gt;&lt;font style=&quot;vertical-align: inherit;&quot;&gt;Fechavisita&lt;/font&gt;&lt;/font&gt;" style="ellipse;whiteSpace=wrap;html=1;align=center;" vertex="1" parent="1">
          <mxGeometry x="990" y="280" width="100" height="40" as="geometry" />
        </mxCell>
        <mxCell id="NhMVIfDmeI67b42QX-OK-93" value="Familia" style="ellipse;shape=doubleEllipse;margin=3;whiteSpace=wrap;html=1;align=center;" vertex="1" parent="1">
          <mxGeometry x="610" y="140" width="100" height="40" as="geometry" />
        </mxCell>
        <mxCell id="NhMVIfDmeI67b42QX-OK-95" value="&lt;font style=&quot;vertical-align: inherit;&quot;&gt;&lt;font style=&quot;vertical-align: inherit;&quot;&gt;Nombre&lt;/font&gt;&lt;/font&gt;" style="ellipse;whiteSpace=wrap;html=1;align=center;" vertex="1" parent="1">
          <mxGeometry x="-60" y="130" width="100" height="40" as="geometry" />
        </mxCell>
        <mxCell id="NhMVIfDmeI67b42QX-OK-96" value="Ubicacion" style="ellipse;shape=doubleEllipse;margin=3;whiteSpace=wrap;html=1;align=center;" vertex="1" parent="1">
          <mxGeometry x="520" y="590" width="100" height="40" as="geometry" />
        </mxCell>
        <mxCell id="NhMVIfDmeI67b42QX-OK-97" value="&lt;font style=&quot;vertical-align: inherit;&quot;&gt;&lt;font style=&quot;vertical-align: inherit;&quot;&gt;Nombrecientifico&lt;/font&gt;&lt;/font&gt;" style="ellipse;whiteSpace=wrap;html=1;align=center;" vertex="1" parent="1">
          <mxGeometry x="620" y="70" width="100" height="40" as="geometry" />
        </mxCell>
        <mxCell id="NhMVIfDmeI67b42QX-OK-98" value="Categoriaconservacion" style="ellipse;shape=doubleEllipse;margin=3;whiteSpace=wrap;html=1;align=center;" vertex="1" parent="1">
          <mxGeometry x="565" y="210" width="130" height="40" as="geometry" />
        </mxCell>
        <mxCell id="NhMVIfDmeI67b42QX-OK-99" value="" style="endArrow=none;html=1;rounded=0;entryX=0.4;entryY=1;entryDx=0;entryDy=0;exitX=0.75;exitY=0;exitDx=0;exitDy=0;entryPerimeter=0;" edge="1" parent="1" source="NhMVIfDmeI67b42QX-OK-10" target="NhMVIfDmeI67b42QX-OK-90">
          <mxGeometry relative="1" as="geometry">
            <mxPoint x="85" y="600" as="sourcePoint" />
            <mxPoint x="194" y="560" as="targetPoint" />
          </mxGeometry>
        </mxCell>
        <mxCell id="NhMVIfDmeI67b42QX-OK-90" value="&lt;font style=&quot;vertical-align: inherit;&quot;&gt;&lt;font style=&quot;vertical-align: inherit;&quot;&gt;Fechacontratacion&lt;/font&gt;&lt;/font&gt;" style="ellipse;whiteSpace=wrap;html=1;align=center;" vertex="1" parent="1">
          <mxGeometry x="110" y="545" width="100" height="40" as="geometry" />
        </mxCell>
      </root>
    </mxGraphModel>
  </diagram>
</mxfile>
